<?xml version="1.0" standalone="no"?>
<!DOCTYPE svg PUBLIC "-//W3C//DTD SVG 20010904//EN"
 "http://www.w3.org/TR/2001/REC-SVG-20010904/DTD/svg10.dtd">
<svg version="1.0" xmlns="http://www.w3.org/2000/svg"
 width="500.000000pt" height="500.000000pt" viewBox="0 0 500.000000 500.000000"
 preserveAspectRatio="xMidYMid meet">
<metadata>
Created by potrace 1.11, written by Peter Selinger 2001-2013
</metadata>
<g transform="translate(0.000000,500.000000) scale(0.100000,-0.100000)"
fill="#000000" stroke="none">
<path d="M2900 4825 c-52 -8 -211 -19 -352 -24 -370 -15 -514 -39 -666 -112
-209 -101 -320 -306 -353 -654 -16 -175 -6 -473 21 -640 46 -275 33 -304 -343
-799 -125 -164 -174 -274 -184 -412 l-6 -81 -125 -104 c-176 -145 -346 -311
-404 -393 -135 -193 -112 -396 65 -583 112 -119 297 -233 462 -287 210 -69
440 -89 945 -84 l355 3 142 -62 c160 -70 237 -93 314 -93 76 0 113 13 203 70
106 66 195 102 375 150 170 45 189 52 391 143 198 89 395 161 553 203 213 57
254 73 402 149 77 40 161 80 188 90 54 20 62 44 20 66 -21 10 -82 14 -248 16
-374 3 -776 70 -970 163 -127 61 -312 187 -407 278 l-47 45 45 50 c48 54 105
164 123 239 6 26 16 91 21 145 19 177 -21 488 -74 577 -14 24 -74 89 -134 145
-158 146 -184 204 -183 407 0 273 105 617 317 1045 52 104 94 193 94 198 0 21
-121 120 -167 136 -64 23 -249 28 -373 10z m296 -46 c68 -12 143 -52 168 -91
14 -22 11 -30 -54 -158 -304 -600 -412 -1113 -288 -1368 15 -30 69 -92 150
-172 73 -71 133 -140 142 -160 49 -120 69 -516 32 -650 -10 -36 -30 -89 -44
-118 -26 -53 -96 -142 -112 -142 -4 0 -31 34 -59 75 -49 70 -105 125 -128 125
-5 0 -39 -22 -74 -48 -94 -72 -334 -233 -414 -280 -58 -33 -95 -45 -218 -71
-103 -22 -176 -31 -239 -31 -85 0 -97 3 -167 37 -92 46 -208 156 -297 283 -51
73 -68 89 -119 115 l-60 30 -168 -2 -167 -2 0 45 c0 106 62 228 227 441 213
277 284 394 309 513 15 72 12 108 -22 320 -21 129 -24 501 -5 630 41 283 134
446 302 535 133 70 306 100 629 110 155 5 290 16 485 38 65 8 131 7 191 -4z"/>
</g>
</svg>
